<?xml version="1.0" encoding="utf-8"?>
<!-- Generator: Adobe Illustrator 22.0.1, SVG Export Plug-In . SVG Version: 6.00 Build 0)  -->
<svg version="1.1" id="레이어_2" xmlns="http://www.w3.org/2000/svg" xmlns:xlink="http://www.w3.org/1999/xlink" x="0px"
	 y="0px" viewBox="0 0 2309.5 1499" style="enable-background:new 0 0 2309.5 1499;" xml:space="preserve">
<style type="text/css">
	.st0{fill:#D4ADFC;fill-opacity:0.302;}
	.st1{fill:#1D267D;fill-opacity:0.2;}
	.st2{fill:#0C134F;fill-opacity:0.2;}
	.st3{fill:#5C469C;fill-opacity:0.2;}
	.st4{fill:#F2F2F2;stroke:#D9D9D9;stroke-width:5;stroke-miterlimit:8;}
	.st5{fill:#BFBFBF;}
	.st6{fill:none;stroke:#BFBFBF;stroke-width:3;stroke-miterlimit:8;}
	.st7{fill:none;stroke:#BFBFBF;stroke-width:7;stroke-miterlimit:8;}
	.st8{fill:#FFFFFF;stroke:#BFBFBF;stroke-width:5;stroke-miterlimit:8;}
	.st9{fill:#FFFFFF;stroke:#BFBFBF;stroke-width:3;stroke-miterlimit:8;}
	.st10{fill:#FFFFFF;stroke:#5C469C;stroke-width:5;stroke-miterlimit:10;}
	.st11{fill:#1D267D;fill-opacity:0.102;stroke:#5C469C;stroke-width:5;stroke-miterlimit:8;}
	.st12{fill:#5C469C;}
	.st13{fill:#1D267D;}
	.st14{fill:#FFFFFF;}
	.st15{clip-path:url(#SVGID_1_);}
	.st16{fill:#BFBFBF;stroke:#BFBFBF;stroke-width:5;stroke-miterlimit:8;}
	.st17{fill:url(#SVGID_2_);}
</style>
<g>
	<path class="st0" d="M156.5,1137c0-74.6,71.4-135,159.5-135c88.1,0,159.5,60.4,159.5,135s-71.4,135-159.5,135
		C227.9,1272,156.5,1211.6,156.5,1137z"/>
	<path class="st1" d="M2207.5,1024.3c4.1-32,26.6-55.4,50.2-52.4c23.6,3,39.3,31.4,35.2,63.4c-4.1,32-26.6,55.4-50.2,52.4
		C2219.1,1084.6,2203.4,1056.2,2207.5,1024.3z"/>
	<path class="st2" d="M531.9,175.9c-9.7-46.5,10.8-90.1,45.8-97.4c34.9-7.2,71.1,24.6,80.7,71.1c9.7,46.5-10.8,90.1-45.8,97.4
		C577.7,254.3,541.5,222.4,531.9,175.9z"/>
	<path class="st3" d="M1857.5,728c0-149.1,101.2-270,226-270s226,120.9,226,270c0,149.1-101.2,270-226,270S1857.5,877.1,1857.5,728z
		"/>
	<path class="st0" d="M1241.9,497.7c-65.1-218.2,19.4-436.2,188.8-486.7c169.4-50.6,359.6,85.4,424.7,303.6
		c65.1,218.2-19.4,436.2-188.8,486.7C1497.2,851.9,1307.1,716,1241.9,497.7z"/>
	<path class="st3" d="M175.5,307.5c0-73.2,59.3-132.5,132.5-132.5s132.5,59.3,132.5,132.5S381.1,440,308,440
		S175.5,380.7,175.5,307.5z"/>
	<path class="st1" d="M0.5,665.5C0.5,499.5,118.9,365,265,365s264.5,134.5,264.5,300.5C529.5,831.5,411,966,265,966
		S0.5,831.5,0.5,665.5z"/>
</g>
<g>
	<path class="st4" d="M945.5,1465h-726c-6.6,0-12-5.4-12-12V427c0-6.6,5.4-12,12-12h726c6.6,0,12,5.4,12,12v1026
		C957.5,1459.6,952.1,1465,945.5,1465z"/>
	<g>
		<g>
			<g>
				<path class="st5" d="M308.3,612.1c0,0-10.3,0-10.3-10.4c0-10.4,10.3-41.5,61.9-41.5c51.6,0,61.9,31.1,61.9,41.5
					c0,10.4-10.3,10.4-10.3,10.4H308.3z M359.9,549.9c17.1,0,30.9-13.9,30.9-31.1c0-17.2-13.9-31.1-30.9-31.1s-30.9,13.9-30.9,31.1
					C328.9,535.9,342.8,549.9,359.9,549.9z"/>
			</g>
		</g>
	</g>
	<path class="st5" d="M712,546.4H496c-6.6,0-12-5.4-12-12v-36c0-6.6,5.4-12,12-12h216c6.6,0,12,5.4,12,12v36
		C724,541,718.6,546.4,712,546.4z"/>
	<path class="st5" d="M878,611.4H490c-3.3,0-6-2.7-6-6v-18c0-3.3,2.7-6,6-6h388c3.3,0,6,2.7,6,6v18C884,608.7,881.3,611.4,878,611.4
		z"/>
	<line class="st6" x1="207.5" y1="665.4" x2="957.5" y2="665.4"/>
	<line class="st6" x1="265.5" y1="1400" x2="884" y2="1400"/>
	<g>
		<path class="st5" d="M431.5,779.5h-154c-6.6,0-12-5.4-12-12v-36c0-6.6,5.4-12,12-12h154c6.6,0,12,5.4,12,12v36
			C443.5,774.1,438.1,779.5,431.5,779.5z"/>
		<g>
			<path class="st5" d="M878,749.5H490c-3.3,0-6-2.7-6-6v-18c0-3.3,2.7-6,6-6h388c3.3,0,6,2.7,6,6v18
				C884,746.8,881.3,749.5,878,749.5z"/>
			<path class="st5" d="M878,800.5H490c-3.3,0-6-2.7-6-6v-18c0-3.3,2.7-6,6-6h388c3.3,0,6,2.7,6,6v18
				C884,797.8,881.3,800.5,878,800.5z"/>
			<path class="st5" d="M878,851.5H490c-3.3,0-6-2.7-6-6v-18c0-3.3,2.7-6,6-6h388c3.3,0,6,2.7,6,6v18
				C884,848.8,881.3,851.5,878,851.5z"/>
		</g>
	</g>
	<path class="st5" d="M431.5,1215.5h-154c-6.6,0-12-5.4-12-12v-36c0-6.6,5.4-12,12-12h154c6.6,0,12,5.4,12,12v36
		C443.5,1210.1,438.1,1215.5,431.5,1215.5z"/>
	<g>
		<line class="st7" x1="282.5" y1="1056.3" x2="882.5" y2="1056.3"/>
		<path class="st5" d="M431.5,974.8h-154c-6.6,0-12-5.4-12-12v-36c0-6.6,5.4-12,12-12h154c6.6,0,12,5.4,12,12v36
			C443.5,969.3,438.1,974.8,431.5,974.8z"/>
		<g>
			<path class="st5" d="M878,959.8H490c-3.3,0-6-2.7-6-6v-18c0-3.3,2.7-6,6-6h388c3.3,0,6,2.7,6,6v18C884,957,881.3,959.8,878,959.8
				z"/>
		</g>
		<g>
			<circle class="st8" cx="377.2" cy="1056.3" r="20"/>
			<circle class="st8" cx="787.8" cy="1056.3" r="20"/>
			<circle class="st8" cx="514.1" cy="1056.3" r="20"/>
			<circle class="st8" cx="650.9" cy="1056.3" r="20"/>
		</g>
	</g>
	<g>
		<rect x="324.8" y="1274.6" class="st9" width="75.6" height="125.4"/>
		<rect x="430.9" y="1296.4" class="st9" width="75.6" height="103.6"/>
		<rect x="537" y="1235.1" class="st9" width="75.6" height="164.9"/>
		<rect x="643.1" y="1261.1" class="st9" width="75.6" height="138.9"/>
		<rect x="749.2" y="1190" class="st9" width="75.6" height="210"/>
	</g>
</g>
<g>
	<path class="st4" d="M2150.5,1465h-726c-6.6,0-12-5.4-12-12V427c0-6.6,5.4-12,12-12h726c6.6,0,12,5.4,12,12v1026
		C2162.5,1459.6,2157.1,1465,2150.5,1465z"/>
	<g>
		<g>
			<g>
				<path class="st5" d="M1735.9,612.1c0,0-10.3,0-10.3-10.4c0-10.4,10.3-41.5,61.9-41.5c51.6,0,61.9,31.1,61.9,41.5
					c0,10.4-10.3,10.4-10.3,10.4H1735.9z M1787.5,549.9c17.1,0,30.9-13.9,30.9-31.1c0-17.2-13.9-31.1-30.9-31.1
					s-30.9,13.9-30.9,31.1C1756.6,535.9,1770.4,549.9,1787.5,549.9z"/>
			</g>
		</g>
	</g>
	<line class="st6" x1="1457.5" y1="754.9" x2="2117.5" y2="754.9"/>
	<line class="st6" x1="1457.5" y1="943.1" x2="2117.5" y2="943.1"/>
	<g>
		<path class="st5" d="M1644.3,843h-154c-6.6,0-12-5.4-12-12v-36c0-6.6,5.4-12,12-12h154c6.6,0,12,5.4,12,12v36
			C1656.3,837.6,1650.9,843,1644.3,843z"/>
		<g>
			<path class="st5" d="M2090.8,813h-358c-3.3,0-6-2.7-6-6v-18c0-3.3,2.7-6,6-6h358c3.3,0,6,2.7,6,6v18
				C2096.8,810.3,2094.1,813,2090.8,813z"/>
			<path class="st5" d="M2090.8,864h-358c-3.3,0-6-2.7-6-6v-18c0-3.3,2.7-6,6-6h358c3.3,0,6,2.7,6,6v18
				C2096.8,861.3,2094.1,864,2090.8,864z"/>
			<path class="st5" d="M2090.8,915h-358c-3.3,0-6-2.7-6-6v-18c0-3.3,2.7-6,6-6h358c3.3,0,6,2.7,6,6v18
				C2096.8,912.3,2094.1,915,2090.8,915z"/>
		</g>
	</g>
	<g>
		<path class="st5" d="M1644.3,1031.2h-154c-6.6,0-12-5.4-12-12v-36c0-6.6,5.4-12,12-12h154c6.6,0,12,5.4,12,12v36
			C1656.3,1025.8,1650.9,1031.2,1644.3,1031.2z"/>
		<path class="st5" d="M1995.2,1001.2h-262.4c-3.3,0-6-2.7-6-6v-18c0-3.3,2.7-6,6-6h262.4c3.3,0,6,2.7,6,6v18
			C2001.2,998.5,1998.5,1001.2,1995.2,1001.2z"/>
		<path class="st5" d="M1931.2,1052.2h-198.4c-3.3,0-6-2.7-6-6v-18c0-3.3,2.7-6,6-6h198.4c3.3,0,6,2.7,6,6v18
			C1937.2,1049.5,1934.5,1052.2,1931.2,1052.2z"/>
		<path class="st5" d="M2090.8,1103.2h-358c-3.3,0-6-2.7-6-6v-18c0-3.3,2.7-6,6-6h358c3.3,0,6,2.7,6,6v18
			C2096.8,1100.5,2094.1,1103.2,2090.8,1103.2z"/>
		<path class="st5" d="M2037.2,1154.3h-304.4c-3.3,0-6-2.7-6-6v-18c0-3.3,2.7-6,6-6h304.4c3.3,0,6,2.7,6,6v18
			C2043.2,1151.6,2040.5,1154.3,2037.2,1154.3z"/>
		<path class="st5" d="M1965.9,1205.3h-233.1c-3.3,0-6-2.7-6-6v-18c0-3.3,2.7-6,6-6h233.1c3.3,0,6,2.7,6,6v18
			C1971.9,1202.6,1969.2,1205.3,1965.9,1205.3z"/>
		<path class="st5" d="M1946.5,1256.3h-213.7c-3.3,0-6-2.7-6-6v-18c0-3.3,2.7-6,6-6h213.7c3.3,0,6,2.7,6,6v18
			C1952.5,1253.6,1949.8,1256.3,1946.5,1256.3z"/>
		<path class="st5" d="M2067.8,1307.3h-335.1c-3.3,0-6-2.7-6-6v-18c0-3.3,2.7-6,6-6h335.1c3.3,0,6,2.7,6,6v18
			C2073.8,1304.6,2071.1,1307.3,2067.8,1307.3z"/>
	</g>
	<line class="st6" x1="1690.5" y1="755" x2="1690.5" y2="1405"/>
	<path class="st5" d="M1995.5,708h-416c-6.6,0-12-5.4-12-12v-46c0-6.6,5.4-12,12-12h416c6.6,0,12,5.4,12,12v46
		C2007.5,702.6,2002.1,708,1995.5,708z"/>
</g>
<g>
	<path class="st10" d="M1598,1493H772c-6.6,0-12-5.4-12-12V115c0-6.6,5.4-12,12-12h826c6.6,0,12,5.4,12,12v1366
		C1610,1487.6,1604.6,1493,1598,1493z"/>
	<path class="st11" d="M1572.9,476.3h-776c-6.6,0-12-5.4-12-12V140c0-6.6,5.4-12,12-12h776c6.6,0,12,5.4,12,12v324.3
		C1584.9,470.9,1579.5,476.3,1572.9,476.3z"/>
	<path class="st11" d="M1573,958H797c-6.6,0-12-5.4-12-12V504c0-6.6,5.4-12,12-12h776c6.6,0,12,5.4,12,12v442
		C1585,952.6,1579.6,958,1573,958z"/>
	<path class="st11" d="M1573,1468.8H797c-6.6,0-12-5.4-12-12v-471c0-6.6,5.4-12,12-12h776c6.6,0,12,5.4,12,12v471
		C1585,1463.3,1579.6,1468.8,1573,1468.8z"/>
	<g>
		<path class="st12" d="M1217.5,1084.3h-376c-6.6,0-12-5.4-12-12v-46c0-6.6,5.4-12,12-12h376c6.6,0,12,5.4,12,12v46
			C1229.5,1078.8,1224.1,1084.3,1217.5,1084.3z"/>
		<g>
			<path class="st13" d="M1028.5,1209.3h-187c-6.6,0-12-5.4-12-12v-66c0-6.6,5.4-12,12-12h187c6.6,0,12,5.4,12,12v66
				C1040.5,1203.8,1035.1,1209.3,1028.5,1209.3z"/>
			<g>
				<path class="st14" d="M1052.5,1206.8c-5.2,0-9.5-4.3-9.5-9.5v-66c0-5.2,4.3-9.5,9.5-9.5H1528c5.2,0,9.5,4.3,9.5,9.5v66
					c0,5.2-4.3,9.5-9.5,9.5H1052.5z"/>
				<path class="st13" d="M1528,1124.3c3.9,0,7,3.1,7,7v66c0,3.9-3.1,7-7,7h-475.5c-3.9,0-7-3.1-7-7v-66c0-3.9,3.1-7,7-7H1528
					 M1528,1119.3h-475.5c-6.6,0-12,5.4-12,12v66c0,6.6,5.4,12,12,12H1528c6.6,0,12-5.4,12-12v-66
					C1540,1124.7,1534.6,1119.3,1528,1119.3L1528,1119.3z"/>
			</g>
		</g>
		<g>
			<path class="st13" d="M1028.5,1429.3h-187c-6.6,0-12-5.4-12-12v-191c0-6.6,5.4-12,12-12h187c6.6,0,12,5.4,12,12v191
				C1040.5,1423.8,1035.1,1429.3,1028.5,1429.3z"/>
			<g>
				<path class="st14" d="M1052.5,1426.8c-5.2,0-9.5-4.3-9.5-9.5v-191c0-5.2,4.3-9.5,9.5-9.5H1528c5.2,0,9.5,4.3,9.5,9.5v191
					c0,5.2-4.3,9.5-9.5,9.5H1052.5z"/>
				<path class="st13" d="M1528,1219.3c3.9,0,7,3.1,7,7v191c0,3.9-3.1,7-7,7h-475.5c-3.9,0-7-3.1-7-7v-191c0-3.9,3.1-7,7-7H1528
					 M1528,1214.3h-475.5c-6.6,0-12,5.4-12,12v191c0,6.6,5.4,12,12,12H1528c6.6,0,12-5.4,12-12v-191
					C1540,1219.7,1534.6,1214.3,1528,1214.3L1528,1214.3z"/>
			</g>
		</g>
	</g>
	<g>
		<path class="st12" d="M1217.5,602.5h-376c-6.6,0-12-5.4-12-12v-46c0-6.6,5.4-12,12-12h376c6.6,0,12,5.4,12,12v46
			C1229.5,597.1,1224.1,602.5,1217.5,602.5z"/>
		<g>
			<path class="st13" d="M1028.5,727.5h-187c-6.6,0-12-5.4-12-12v-66c0-6.6,5.4-12,12-12h187c6.6,0,12,5.4,12,12v66
				C1040.5,722.1,1035.1,727.5,1028.5,727.5z"/>
			<g>
				<path class="st14" d="M1052.5,725c-5.2,0-9.5-4.3-9.5-9.5v-66c0-5.2,4.3-9.5,9.5-9.5H1528c5.2,0,9.5,4.3,9.5,9.5v66
					c0,5.2-4.3,9.5-9.5,9.5H1052.5z"/>
				<path class="st13" d="M1528,642.5c3.9,0,7,3.1,7,7v66c0,3.9-3.1,7-7,7h-475.5c-3.9,0-7-3.1-7-7v-66c0-3.9,3.1-7,7-7H1528
					 M1528,637.5h-475.5c-6.6,0-12,5.4-12,12v66c0,6.6,5.4,12,12,12H1528c6.6,0,12-5.4,12-12v-66
					C1540,642.9,1534.6,637.5,1528,637.5L1528,637.5z"/>
			</g>
		</g>
		<g>
			<path class="st13" d="M1028.5,822.5h-187c-6.6,0-12-5.4-12-12v-66c0-6.6,5.4-12,12-12h187c6.6,0,12,5.4,12,12v66
				C1040.5,817.1,1035.1,822.5,1028.5,822.5z"/>
			<g>
				<path class="st14" d="M1052.5,820c-5.2,0-9.5-4.3-9.5-9.5v-66c0-5.2,4.3-9.5,9.5-9.5H1528c5.2,0,9.5,4.3,9.5,9.5v66
					c0,5.2-4.3,9.5-9.5,9.5H1052.5z"/>
				<path class="st13" d="M1528,737.5c3.9,0,7,3.1,7,7v66c0,3.9-3.1,7-7,7h-475.5c-3.9,0-7-3.1-7-7v-66c0-3.9,3.1-7,7-7H1528
					 M1528,732.5h-475.5c-6.6,0-12,5.4-12,12v66c0,6.6,5.4,12,12,12H1528c6.6,0,12-5.4,12-12v-66
					C1540,737.9,1534.6,732.5,1528,732.5L1528,732.5z"/>
			</g>
		</g>
		<g>
			<path class="st13" d="M1028.5,917.5h-187c-6.6,0-12-5.4-12-12v-66c0-6.6,5.4-12,12-12h187c6.6,0,12,5.4,12,12v66
				C1040.5,912.1,1035.1,917.5,1028.5,917.5z"/>
			<g>
				<path class="st14" d="M1052.5,915c-5.2,0-9.5-4.3-9.5-9.5v-66c0-5.2,4.3-9.5,9.5-9.5H1528c5.2,0,9.5,4.3,9.5,9.5v66
					c0,5.2-4.3,9.5-9.5,9.5H1052.5z"/>
				<path class="st13" d="M1528,832.5c3.9,0,7,3.1,7,7v66c0,3.9-3.1,7-7,7h-475.5c-3.9,0-7-3.1-7-7v-66c0-3.9,3.1-7,7-7H1528
					 M1528,827.5h-475.5c-6.6,0-12,5.4-12,12v66c0,6.6,5.4,12,12,12H1528c6.6,0,12-5.4,12-12v-66
					C1540,832.9,1534.6,827.5,1528,827.5L1528,827.5z"/>
			</g>
		</g>
	</g>
	<g>
		<g>
			<defs>
				<circle id="SVGID_3_" cx="948.1" cy="302.1" r="118.5"/>
			</defs>
			<use xlink:href="#SVGID_3_"  style="overflow:visible;fill:#F2F2F2;"/>
			<clipPath id="SVGID_1_">
				<use xlink:href="#SVGID_3_"  style="overflow:visible;"/>
			</clipPath>
			<g class="st15">
				<g>
					<g>
						<path class="st16" d="M873,417.3c0,0-15,0-15-15.1c0-15.1,15-60.5,90.2-60.5c75.1,0,90.2,45.4,90.2,60.5
							c0,15.1-15,15.1-15,15.1H873z M948.1,326.6c24.9,0,45.1-20.3,45.1-45.4s-20.2-45.4-45.1-45.4S903,256.2,903,281.2
							S923.2,326.6,948.1,326.6z"/>
					</g>
				</g>
			</g>
			<use xlink:href="#SVGID_3_"  style="overflow:visible;fill:none;stroke:#BFBFBF;stroke-width:5;stroke-miterlimit:8;"/>
		</g>
		<path class="st12" d="M1528.1,253.6h-416c-6.6,0-12-5.4-12-12v-46c0-6.6,5.4-12,12-12h416c6.6,0,12,5.4,12,12v46
			C1540.1,248.2,1534.7,253.6,1528.1,253.6z"/>
		<path class="st12" d="M1534.1,318.6h-428c-3.3,0-6-2.7-6-6v-18c0-3.3,2.7-6,6-6h428c3.3,0,6,2.7,6,6v18
			C1540.1,315.9,1537.4,318.6,1534.1,318.6z"/>
		<path class="st12" d="M1534.1,369.6h-428c-3.3,0-6-2.7-6-6v-18c0-3.3,2.7-6,6-6h428c3.3,0,6,2.7,6,6v18
			C1540.1,366.9,1537.4,369.6,1534.1,369.6z"/>
		<path class="st12" d="M1534.1,420.6h-428c-3.3,0-6-2.7-6-6v-18c0-3.3,2.7-6,6-6h428c3.3,0,6,2.7,6,6v18
			C1540.1,417.9,1537.4,420.6,1534.1,420.6z"/>
	</g>
</g>
<linearGradient id="SVGID_2_" gradientUnits="userSpaceOnUse" x1="1154.97" y1="1499" x2="1154.97" y2="1292.25">
	<stop  offset="0.5" style="stop-color:#FFFFFF"/>
	<stop  offset="1" style="stop-color:#FFFFFF;stop-opacity:0"/>
</linearGradient>
<rect x="0.5" y="1292.3" class="st17" width="2309" height="206.8"/>
</svg>
