<svg xmlns="http://www.w3.org/2000/svg" viewBox="0 0 753 1053"><defs><style>.cls-1{fill:#f2f2f2;stroke:#d9d9d9;}.cls-1,.cls-3{stroke-miterlimit:8;stroke-width:3px;}.cls-2{fill:#bfbfbf;}.cls-3{fill:none;stroke:#bfbfbf;}</style></defs><title>자산 5</title><g id="레이어_2" data-name="레이어 2"><g id="레이어_2-2" data-name="레이어 2"><path class="cls-1" d="M739.5,1051.5H13.5a12,12,0,0,1-12-12V13.5a12,12,0,0,1,12-12h726a12,12,0,0,1,12,12v1026A12,12,0,0,1,739.5,1051.5Z"/><path class="cls-2" d="M324.9,198.6s-10.3,0-10.3-10.4,10.3-41.5,61.9-41.5,61.9,31.1,61.9,41.5-10.3,10.4-10.3,10.4Zm51.6-62.2a31.1,31.1,0,1,0-30.9-31.1A31,31,0,0,0,376.5,136.4Z"/><line class="cls-3" x1="46.5" y1="341.4" x2="706.5" y2="341.4"/><line class="cls-3" x1="46.5" y1="529.6" x2="706.5" y2="529.6"/><path class="cls-2" d="M233.3,429.5H79.3a12,12,0,0,1-12-12v-36a12,12,0,0,1,12-12h154a12,12,0,0,1,12,12v36A12,12,0,0,1,233.3,429.5Z"/><path class="cls-2" d="M679.8,399.5h-358a6,6,0,0,1-6-6v-18a6,6,0,0,1,6-6h358a6,6,0,0,1,6,6v18A6,6,0,0,1,679.8,399.5Z"/><path class="cls-2" d="M679.8,450.5h-358a6,6,0,0,1-6-6v-18a6,6,0,0,1,6-6h358a6,6,0,0,1,6,6v18A6,6,0,0,1,679.8,450.5Z"/><path class="cls-2" d="M679.8,501.5h-358a6,6,0,0,1-6-6v-18a6,6,0,0,1,6-6h358a6,6,0,0,1,6,6v18A6,6,0,0,1,679.8,501.5Z"/><path class="cls-2" d="M233.3,617.7H79.3a12,12,0,0,1-12-12v-36a12,12,0,0,1,12-12h154a12,12,0,0,1,12,12v36A12,12,0,0,1,233.3,617.7Z"/><path class="cls-2" d="M584.2,587.7H321.8a6,6,0,0,1-6-6v-18a6,6,0,0,1,6-6H584.2a6,6,0,0,1,6,6v18A6,6,0,0,1,584.2,587.7Z"/><path class="cls-2" d="M520.2,638.7H321.8a6,6,0,0,1-6-6v-18a6,6,0,0,1,6-6H520.2a6,6,0,0,1,6,6v18A6,6,0,0,1,520.2,638.7Z"/><path class="cls-2" d="M679.8,689.7h-358a6,6,0,0,1-6-6v-18a6,6,0,0,1,6-6h358a6,6,0,0,1,6,6v18A6,6,0,0,1,679.8,689.7Z"/><path class="cls-2" d="M626.2,740.8H321.8a6,6,0,0,1-6-6v-18a6,6,0,0,1,6-6H626.2a6,6,0,0,1,6,6v18A6,6,0,0,1,626.2,740.8Z"/><path class="cls-2" d="M554.9,791.8H321.8a6,6,0,0,1-6-6v-18a6,6,0,0,1,6-6H554.9a6,6,0,0,1,6,6v18A6,6,0,0,1,554.9,791.8Z"/><path class="cls-2" d="M535.5,842.8H321.8a6,6,0,0,1-6-6v-18a6,6,0,0,1,6-6H535.5a6,6,0,0,1,6,6v18A6,6,0,0,1,535.5,842.8Z"/><path class="cls-2" d="M656.8,893.8H321.7a6,6,0,0,1-6-6v-18a6,6,0,0,1,6-6H656.8a6,6,0,0,1,6,6v18A6,6,0,0,1,656.8,893.8Z"/><line class="cls-3" x1="279.5" y1="341.5" x2="279.5" y2="991.5"/><path class="cls-2" d="M584.5,294.5h-416a12,12,0,0,1-12-12v-46a12,12,0,0,1,12-12h416a12,12,0,0,1,12,12v46A12,12,0,0,1,584.5,294.5Z"/></g></g></svg>