<svg xmlns="http://www.w3.org/2000/svg" xmlns:xlink="http://www.w3.org/1999/xlink" viewBox="0 0 753 1053"><defs><style>.cls-1,.cls-10{fill:none;}.cls-2,.cls-6{fill:#fff;}.cls-10,.cls-2,.cls-9{stroke:#bfbfbf;}.cls-10,.cls-2,.cls-3,.cls-9{stroke-miterlimit:8;}.cls-10,.cls-2,.cls-3,.cls-6,.cls-9{stroke-width:3px;}.cls-3,.cls-5{fill:#1d267d;}.cls-3{fill-opacity:0.1;stroke:#5c469c;}.cls-4{fill:#5c469c;}.cls-6{stroke:#1d267d;stroke-miterlimit:10;}.cls-7{fill:#f2f2f2;}.cls-8{clip-path:url(#clip-path);}.cls-9{fill:#bfbfbf;}</style><clipPath id="clip-path"><circle class="cls-1" cx="160.68" cy="143.24" r="84.62"/></clipPath></defs><title>자산 3</title><g id="레이어_2" data-name="레이어 2"><g id="레이어_2-2" data-name="레이어 2"><path class="cls-2" d="M740.91,1051.5H12.09c-5.83,0-10.59-4.08-10.59-9.06V10.56c0-5,4.76-9.06,10.59-9.06H740.91c5.83,0,10.59,4.08,10.59,9.06V1042.44C751.5,1047.42,746.74,1051.5,740.91,1051.5Z"/><path class="cls-3" d="M718.76,261.29H34.06c-5.82,0-10.59-3.67-10.59-8.15V32.72c0-4.49,4.77-8.16,10.59-8.16h684.7c5.83,0,10.59,3.67,10.59,8.16V253.14C729.35,257.62,724.59,261.29,718.76,261.29Z"/><path class="cls-3" d="M718.85,628.09H34.15c-5.83,0-10.59-4.09-10.59-9.09V284.24c0-5,4.76-9.09,10.59-9.09h684.7c5.83,0,10.59,4.09,10.59,9.09V619C729.44,624,724.68,628.09,718.85,628.09Z"/><path class="cls-3" d="M718.85,1027H34.15c-5.83,0-10.59-4.2-10.59-9.33V651.36c0-5.13,4.76-9.33,10.59-9.33h684.7c5.83,0,10.59,4.2,10.59,9.33V1017.7C729.44,1022.75,724.68,1027,718.85,1027Z"/><path class="cls-4" d="M405.18,739.53H73.41a10.63,10.63,0,0,1-10.59-10.59V688.35a10.63,10.63,0,0,1,10.59-10.59H405.18a10.62,10.62,0,0,1,10.58,10.59v40.59A10.67,10.67,0,0,1,405.18,739.53Z"/><path class="cls-5" d="M238.41,834.6h-165c-5.82,0-10.59-3.85-10.59-8.56V779c0-4.71,4.77-8.56,10.59-8.56h165c5.83,0,10.59,3.85,10.59,8.56V826C249,830.68,244.24,834.6,238.41,834.6Z"/><path class="cls-6" d="M259.59,832.82c-4.59,0-8.38-3.07-8.38-6.78V779c0-3.71,3.79-6.78,8.38-6.78H679.15c4.59,0,8.38,3.07,8.38,6.78V826c0,3.71-3.79,6.78-8.38,6.78Z"/><path class="cls-5" d="M238.41,991.5h-165c-5.82,0-10.59-3.85-10.59-8.56V846.72c0-4.7,4.77-8.56,10.59-8.56h165c5.83,0,10.59,3.86,10.59,8.56V982.94C249,987.58,244.24,991.5,238.41,991.5Z"/><path class="cls-6" d="M259.59,989.72c-4.59,0-8.38-3.07-8.38-6.78V846.72c0-3.71,3.79-6.77,8.38-6.77H679.15c4.59,0,8.38,3.06,8.38,6.77V982.94c0,3.71-3.79,6.78-8.38,6.78Z"/><path class="cls-4" d="M405.18,372.65H73.41a10.63,10.63,0,0,1-10.59-10.59V321.47a10.63,10.63,0,0,1,10.59-10.59H405.18a10.62,10.62,0,0,1,10.58,10.59v40.59A10.62,10.62,0,0,1,405.18,372.65Z"/><path class="cls-5" d="M238.41,465.92h-165c-5.82,0-10.59-3.74-10.59-8.31V411.85c0-4.58,4.77-8.32,10.59-8.32h165c5.83,0,10.59,3.74,10.59,8.32v45.76C249,462.18,244.24,465.92,238.41,465.92Z"/><path class="cls-6" d="M259.59,464.19c-4.59,0-8.38-3-8.38-6.58V411.85c0-3.61,3.79-6.59,8.38-6.59H679.15c4.59,0,8.38,3,8.38,6.59v45.76c0,3.6-3.79,6.58-8.38,6.58Z"/><path class="cls-5" d="M238.41,531.79h-165c-5.82,0-10.59-3.75-10.59-8.32V477.71c0-4.58,4.77-8.32,10.59-8.32h165c5.83,0,10.59,3.74,10.59,8.32v45.76C249,528,244.24,531.79,238.41,531.79Z"/><path class="cls-6" d="M259.59,530.05c-4.59,0-8.38-3-8.38-6.58V477.71c0-3.6,3.79-6.59,8.38-6.59H679.15c4.59,0,8.38,3,8.38,6.59v45.76c0,3.6-3.79,6.58-8.38,6.58Z"/><path class="cls-5" d="M238.41,597.65h-165c-5.82,0-10.59-3.75-10.59-8.32V543.57c0-4.57,4.77-8.32,10.59-8.32h165c5.83,0,10.59,3.75,10.59,8.32v45.76C249,593.9,244.24,597.65,238.41,597.65Z"/><path class="cls-6" d="M259.59,595.91c-4.59,0-8.38-3-8.38-6.58V543.57c0-3.6,3.79-6.58,8.38-6.58H679.15c4.59,0,8.38,3,8.38,6.58v45.76c0,3.6-3.79,6.58-8.38,6.58Z"/><circle id="SVGID" class="cls-7" cx="160.68" cy="143.24" r="84.62"/><g class="cls-8"><path class="cls-9" d="M107.05,226.94s-10.71,0-10.71-10.78S107.05,173,160.76,173s64.41,32.42,64.41,43.21-10.71,10.78-10.71,10.78Zm53.63-64.77a32.43,32.43,0,1,0-32.2-32.42A32.31,32.31,0,0,0,160.68,162.17Z"/></g><circle id="SVGID-2" data-name="SVGID" class="cls-10" cx="160.68" cy="143.24" r="84.62"/><path class="cls-4" d="M671.29,120.38h-367a10.61,10.61,0,0,1-10.59-10.59V69.21a10.61,10.61,0,0,1,10.59-10.59h367a10.61,10.61,0,0,1,10.59,10.59v40.58A10.61,10.61,0,0,1,671.29,120.38Z"/><path class="cls-4" d="M676.59,177.74H298.94a5.31,5.31,0,0,1-5.29-5.3V156.56a5.31,5.31,0,0,1,5.29-5.3H676.59a5.31,5.31,0,0,1,5.29,5.3v15.88A5.31,5.31,0,0,1,676.59,177.74Z"/><path class="cls-4" d="M676.59,222.74H298.94a5.31,5.31,0,0,1-5.29-5.3V201.56a5.31,5.31,0,0,1,5.29-5.3H676.59a5.31,5.31,0,0,1,5.29,5.3v15.88A5.31,5.31,0,0,1,676.59,222.74Z"/></g></g></svg>