<svg xmlns="http://www.w3.org/2000/svg" viewBox="0 0 753 1053"><defs><style>.cls-1,.cls-7{fill:#1d267d;}.cls-1{fill-opacity:0.1;stroke-miterlimit:8;}.cls-1,.cls-5{stroke:#5c469c;}.cls-1,.cls-4,.cls-8{stroke-width:3px;}.cls-2{fill:#bfbfbf;}.cls-3,.cls-5{fill:#5c469c;}.cls-4{fill:#fff;}.cls-4,.cls-8{stroke:#1d267d;}.cls-4,.cls-5,.cls-8{stroke-miterlimit:10;}.cls-6{opacity:0.1;}.cls-8{fill:none;}</style></defs><title>자산 1</title><g id="레이어_2" data-name="레이어 2"><g id="레이어_2-2" data-name="레이어 2"><path class="cls-1" d="M739.5,1051.5H13.5a12,12,0,0,1-12-12V13.5a12,12,0,0,1,12-12h726a12,12,0,0,1,12,12v1026A12,12,0,0,1,739.5,1051.5Z"/><path class="cls-2" d="M102.3,198.6S92,198.6,92,188.2s10.3-41.5,61.9-41.5,61.9,31.1,61.9,41.5-10.3,10.4-10.3,10.4Zm51.6-62.2A31.1,31.1,0,1,0,123,105.3,31,31,0,0,0,153.9,136.4Z"/><path class="cls-3" d="M506,132.9H290a12,12,0,0,1-12-12v-36a12,12,0,0,1,12-12H506a12,12,0,0,1,12,12v36A12,12,0,0,1,506,132.9Z"/><path class="cls-3" d="M672,197.9H284a6,6,0,0,1-6-6v-18a6,6,0,0,1,6-6H672a6,6,0,0,1,6,6v18A6,6,0,0,1,672,197.9Z"/><line class="cls-4" x1="1.5" y1="251.9" x2="751.5" y2="251.9"/><line class="cls-4" x1="59.5" y1="986.5" x2="678" y2="986.5"/><path class="cls-3" d="M225.5,366H71.5a12,12,0,0,1-12-12V318a12,12,0,0,1,12-12h154a12,12,0,0,1,12,12v36A12,12,0,0,1,225.5,366Z"/><path class="cls-3" d="M672,336H284a6,6,0,0,1-6-6V312a6,6,0,0,1,6-6H672a6,6,0,0,1,6,6v18A6,6,0,0,1,672,336Z"/><path class="cls-3" d="M672,387H284a6,6,0,0,1-6-6V363a6,6,0,0,1,6-6H672a6,6,0,0,1,6,6v18A6,6,0,0,1,672,387Z"/><path class="cls-3" d="M672,438H284a6,6,0,0,1-6-6V414a6,6,0,0,1,6-6H672a6,6,0,0,1,6,6v18A6,6,0,0,1,672,438Z"/><path class="cls-3" d="M225.5,802H71.5a12,12,0,0,1-12-12V754a12,12,0,0,1,12-12h154a12,12,0,0,1,12,12v36A12,12,0,0,1,225.5,802Z"/><line class="cls-4" x1="76.5" y1="642.8" x2="676.5" y2="642.8"/><path class="cls-5" d="M225.5,561.3H71.5a12,12,0,0,1-12-12v-36a12,12,0,0,1,12-12h154a12,12,0,0,1,12,12v36A12.1,12.1,0,0,1,225.5,561.3Z"/><path class="cls-5" d="M672,546.3H284a6,6,0,0,1-6-6v-18a6,6,0,0,1,6-6H672a6,6,0,0,1,6,6v18A6.08,6.08,0,0,1,672,546.3Z"/><circle class="cls-4" cx="171.2" cy="642.8" r="20"/><circle class="cls-4" cx="581.8" cy="642.8" r="20"/><circle class="cls-4" cx="308.1" cy="642.8" r="20"/><circle class="cls-4" cx="444.9" cy="642.8" r="20"/><g class="cls-6"><rect class="cls-7" x="118.8" y="861.1" width="75.6" height="125.4"/><rect class="cls-7" x="224.9" y="882.9" width="75.6" height="103.6"/><rect class="cls-7" x="331" y="821.6" width="75.6" height="164.9"/><rect class="cls-7" x="437.1" y="847.6" width="75.6" height="138.9"/><rect class="cls-7" x="543.2" y="776.5" width="75.6" height="210"/></g><rect class="cls-8" x="118.8" y="861.1" width="75.6" height="125.4"/><rect class="cls-8" x="224.9" y="882.9" width="75.6" height="103.6"/><rect class="cls-8" x="331" y="821.6" width="75.6" height="164.9"/><rect class="cls-8" x="437.1" y="847.6" width="75.6" height="138.9"/><rect class="cls-8" x="543.2" y="776.5" width="75.6" height="210"/></g></g></svg>